<?xml version="1.0" encoding="UTF-8"?><svg xmlns="http://www.w3.org/2000/svg" xmlns:xlink="http://www.w3.org/1999/xlink" fill-opacity="1" color-rendering="auto" color-interpolation="auto" text-rendering="auto" stroke="black" stroke-linecap="square" width="3337" stroke-miterlimit="10" shape-rendering="auto" stroke-opacity="1" fill="black" stroke-dasharray="none" font-weight="normal" stroke-width="1" height="360" font-family="'Dialog'" font-style="normal" stroke-linejoin="miter" font-size="12px" stroke-dashoffset="0" image-rendering="auto">
  <!--Generated by ySVG 2.5-->
  <defs id="genericDefs"/>
  <g>
    <defs id="defs1">
      <clipPath clipPathUnits="userSpaceOnUse" id="clipPath1">
        <path d="M0 0 L3337 0 L3337 360 L0 360 L0 0 Z"/>
      </clipPath>
      <clipPath clipPathUnits="userSpaceOnUse" id="clipPath2">
        <path d="M-15 285 L3322 285 L3322 645 L-15 645 L-15 285 Z"/>
      </clipPath>
    </defs>
    <g fill="white" text-rendering="geometricPrecision" shape-rendering="geometricPrecision" transform="translate(15,-285)" stroke="white">
      <rect x="-15" width="3337" height="360" y="285" clip-path="url(#clipPath2)" stroke="none"/>
    </g>
    <g fill="rgb(255,204,0)" text-rendering="geometricPrecision" shape-rendering="geometricPrecision" transform="matrix(1,0,0,1,15,-285)" stroke="rgb(255,204,0)">
      <rect x="0" width="149" height="30" y="400" clip-path="url(#clipPath2)" stroke="none"/>
    </g>
    <g text-rendering="geometricPrecision" stroke-miterlimit="1.45" shape-rendering="geometricPrecision" transform="matrix(1,0,0,1,15,-285)" stroke-linecap="butt">
      <rect fill="none" x="0" width="149" height="30" y="400" clip-path="url(#clipPath2)"/>
      <text x="12.165" xml:space="preserve" y="419.1543" clip-path="url(#clipPath2)" font-family="sans-serif" stroke="none">Do you have a token</text>
    </g>
    <g fill="rgb(255,204,0)" text-rendering="geometricPrecision" shape-rendering="geometricPrecision" transform="matrix(1,0,0,1,15,-285)" stroke="rgb(255,204,0)">
      <rect x="200" width="100" height="30" y="300" clip-path="url(#clipPath2)" stroke="none"/>
    </g>
    <g text-rendering="geometricPrecision" stroke-miterlimit="1.45" shape-rendering="geometricPrecision" transform="matrix(1,0,0,1,15,-285)" stroke-linecap="butt">
      <rect fill="none" x="200" width="100" height="30" y="300" clip-path="url(#clipPath2)"/>
      <text x="221.8428" xml:space="preserve" y="319.1543" clip-path="url(#clipPath2)" font-family="sans-serif" stroke="none">getToken</text>
    </g>
    <g fill="rgb(255,204,0)" text-rendering="geometricPrecision" shape-rendering="geometricPrecision" transform="matrix(1,0,0,1,15,-285)" stroke="rgb(255,204,0)">
      <rect x="200" width="100" height="30" y="500" clip-path="url(#clipPath2)" stroke="none"/>
    </g>
    <g text-rendering="geometricPrecision" stroke-miterlimit="1.45" shape-rendering="geometricPrecision" transform="matrix(1,0,0,1,15,-285)" stroke-linecap="butt">
      <rect fill="none" x="200" width="100" height="30" y="500" clip-path="url(#clipPath2)"/>
      <text x="209.4561" xml:space="preserve" y="519.1543" clip-path="url(#clipPath2)" font-family="sans-serif" stroke="none">getUsername</text>
    </g>
    <g fill="rgb(255,204,0)" text-rendering="geometricPrecision" shape-rendering="geometricPrecision" transform="matrix(1,0,0,1,15,-285)" stroke="rgb(255,204,0)">
      <rect x="400" width="100" height="30" y="400" clip-path="url(#clipPath2)" stroke="none"/>
    </g>
    <g text-rendering="geometricPrecision" stroke-miterlimit="1.45" shape-rendering="geometricPrecision" transform="matrix(1,0,0,1,15,-285)" stroke-linecap="butt">
      <rect fill="none" x="400" width="100" height="30" y="400" clip-path="url(#clipPath2)"/>
      <text x="410.1387" xml:space="preserve" y="419.1543" clip-path="url(#clipPath2)" font-family="sans-serif" stroke="none">setUsername</text>
    </g>
    <g fill="rgb(255,204,0)" text-rendering="geometricPrecision" shape-rendering="geometricPrecision" transform="matrix(1,0,0,1,15,-285)" stroke="rgb(255,204,0)">
      <rect x="600" width="100" height="30" y="300" clip-path="url(#clipPath2)" stroke="none"/>
    </g>
    <g text-rendering="geometricPrecision" stroke-miterlimit="1.45" shape-rendering="geometricPrecision" transform="matrix(1,0,0,1,15,-285)" stroke-linecap="butt">
      <rect fill="none" x="600" width="100" height="30" y="300" clip-path="url(#clipPath2)"/>
      <text x="621.3301" xml:space="preserve" y="319.1543" clip-path="url(#clipPath2)" font-family="sans-serif" stroke="none">joinGame</text>
    </g>
    <g fill="rgb(255,204,0)" text-rendering="geometricPrecision" shape-rendering="geometricPrecision" transform="matrix(1,0,0,1,15,-285)" stroke="rgb(255,204,0)">
      <rect x="600" width="100" height="30" y="500" clip-path="url(#clipPath2)" stroke="none"/>
    </g>
    <g text-rendering="geometricPrecision" stroke-miterlimit="1.45" shape-rendering="geometricPrecision" transform="matrix(1,0,0,1,15,-285)" stroke-linecap="butt">
      <rect fill="none" x="600" width="100" height="30" y="500" clip-path="url(#clipPath2)"/>
      <text x="612.96" xml:space="preserve" y="519.1543" clip-path="url(#clipPath2)" font-family="sans-serif" stroke="none">createGame</text>
    </g>
    <g fill="rgb(255,204,0)" text-rendering="geometricPrecision" shape-rendering="geometricPrecision" transform="matrix(1,0,0,1,15,-285)" stroke="rgb(255,204,0)">
      <rect x="800" width="100" height="30" y="300" clip-path="url(#clipPath2)" stroke="none"/>
    </g>
    <g text-rendering="geometricPrecision" stroke-miterlimit="1.45" shape-rendering="geometricPrecision" transform="matrix(1,0,0,1,15,-285)" stroke-linecap="butt">
      <rect fill="none" x="800" width="100" height="30" y="300" clip-path="url(#clipPath2)"/>
      <text x="823.3457" xml:space="preserve" y="319.1543" clip-path="url(#clipPath2)" font-family="sans-serif" stroke="none">getUsers</text>
    </g>
    <g fill="rgb(255,204,0)" text-rendering="geometricPrecision" shape-rendering="geometricPrecision" transform="matrix(1,0,0,1,15,-285)" stroke="rgb(255,204,0)">
      <rect x="1000" width="100" height="30" y="405.8875" clip-path="url(#clipPath2)" stroke="none"/>
    </g>
    <g text-rendering="geometricPrecision" stroke-miterlimit="1.45" shape-rendering="geometricPrecision" transform="matrix(1,0,0,1,15,-285)" stroke-linecap="butt">
      <rect fill="none" x="1000" width="100" height="30" y="405.8875" clip-path="url(#clipPath2)"/>
      <text x="1021.7109" xml:space="preserve" y="425.0418" clip-path="url(#clipPath2)" font-family="sans-serif" stroke="none">setStatus</text>
    </g>
    <g fill="blue" text-rendering="geometricPrecision" shape-rendering="geometricPrecision" transform="matrix(1,0,0,1,15,-285)" stroke="blue">
      <rect x="1200" width="100" height="30" y="405.8875" clip-path="url(#clipPath2)" stroke="none"/>
    </g>
    <g text-rendering="geometricPrecision" stroke-miterlimit="1.45" shape-rendering="geometricPrecision" transform="matrix(1,0,0,1,15,-285)" stroke-linecap="butt">
      <rect fill="none" x="1200" width="100" height="30" y="405.8875" clip-path="url(#clipPath2)"/>
      <text x="1201.1328" y="425.0418" clip-path="url(#clipPath2)" fill="white" font-family="sans-serif" stroke="none" xml:space="preserve">gameStartEvent</text>
    </g>
    <g fill="blue" text-rendering="geometricPrecision" shape-rendering="geometricPrecision" transform="matrix(1,0,0,1,15,-285)" stroke="blue">
      <rect x="1400" width="100" height="30" y="405.8875" clip-path="url(#clipPath2)" stroke="none"/>
    </g>
    <g text-rendering="geometricPrecision" stroke-miterlimit="1.45" shape-rendering="geometricPrecision" transform="matrix(1,0,0,1,15,-285)" stroke-linecap="butt">
      <rect fill="none" x="1400" width="100" height="30" y="405.8875" clip-path="url(#clipPath2)"/>
      <text x="1400.6025" y="425.0418" clip-path="url(#clipPath2)" fill="white" font-family="sans-serif" stroke="none" xml:space="preserve">roundStartEvent</text>
    </g>
    <g fill="rgb(255,204,0)" text-rendering="geometricPrecision" shape-rendering="geometricPrecision" transform="matrix(1,0,0,1,15,-285)" stroke="rgb(255,204,0)">
      <rect x="1600" width="100" height="30" y="405.8875" clip-path="url(#clipPath2)" stroke="none"/>
    </g>
    <g text-rendering="geometricPrecision" stroke-miterlimit="1.45" shape-rendering="geometricPrecision" transform="matrix(1,0,0,1,15,-285)" stroke-linecap="butt">
      <rect fill="none" x="1600" width="100" height="30" y="405.8875" clip-path="url(#clipPath2)"/>
      <text x="1622.8799" xml:space="preserve" y="425.0418" clip-path="url(#clipPath2)" font-family="sans-serif" stroke="none">getCards</text>
    </g>
    <g fill="rgb(255,204,0)" text-rendering="geometricPrecision" shape-rendering="geometricPrecision" transform="matrix(1,0,0,1,15,-285)" stroke="rgb(255,204,0)">
      <rect x="1800" width="100" height="30" y="405.8875" clip-path="url(#clipPath2)" stroke="none"/>
    </g>
    <g text-rendering="geometricPrecision" stroke-miterlimit="1.45" shape-rendering="geometricPrecision" transform="matrix(1,0,0,1,15,-285)" stroke-linecap="butt">
      <rect fill="none" x="1800" width="100" height="30" y="405.8875" clip-path="url(#clipPath2)"/>
      <text x="1823.5625" xml:space="preserve" y="425.0418" clip-path="url(#clipPath2)" font-family="sans-serif" stroke="none">setCards</text>
    </g>
    <g fill="rgb(255,204,0)" text-rendering="geometricPrecision" shape-rendering="geometricPrecision" transform="matrix(1,0,0,1,15,-285)" stroke="rgb(255,204,0)">
      <rect x="2000" width="100" height="30" y="405.8875" clip-path="url(#clipPath2)" stroke="none"/>
    </g>
    <g text-rendering="geometricPrecision" stroke-miterlimit="1.45" shape-rendering="geometricPrecision" transform="matrix(1,0,0,1,15,-285)" stroke-linecap="butt">
      <rect fill="none" x="2000" width="100" height="30" y="405.8875" clip-path="url(#clipPath2)"/>
      <text x="2021.7109" xml:space="preserve" y="425.0418" clip-path="url(#clipPath2)" font-family="sans-serif" stroke="none">setStatus</text>
    </g>
    <g fill="blue" text-rendering="geometricPrecision" shape-rendering="geometricPrecision" transform="matrix(1,0,0,1,15,-285)" stroke="blue">
      <rect x="2200" width="100" height="30" y="405.8875" clip-path="url(#clipPath2)" stroke="none"/>
    </g>
    <g text-rendering="geometricPrecision" stroke-miterlimit="1.45" shape-rendering="geometricPrecision" transform="matrix(1,0,0,1,15,-285)" stroke-linecap="butt">
      <rect fill="none" x="2200" width="100" height="30" y="405.8875" clip-path="url(#clipPath2)"/>
      <text x="2219.5459" y="425.0418" clip-path="url(#clipPath2)" fill="white" font-family="sans-serif" stroke="none" xml:space="preserve">voteEvent</text>
    </g>
    <g fill="rgb(255,204,0)" text-rendering="geometricPrecision" shape-rendering="geometricPrecision" transform="matrix(1,0,0,1,15,-285)" stroke="rgb(255,204,0)">
      <rect x="2400" width="100" height="30" y="405.8875" clip-path="url(#clipPath2)" stroke="none"/>
    </g>
    <g text-rendering="geometricPrecision" stroke-miterlimit="1.45" shape-rendering="geometricPrecision" transform="matrix(1,0,0,1,15,-285)" stroke-linecap="butt">
      <rect fill="none" x="2400" width="100" height="30" y="405.8875" clip-path="url(#clipPath2)"/>
      <text x="2422.8799" xml:space="preserve" y="425.0418" clip-path="url(#clipPath2)" font-family="sans-serif" stroke="none">getCards</text>
    </g>
    <g fill="rgb(255,204,0)" text-rendering="geometricPrecision" shape-rendering="geometricPrecision" transform="matrix(1,0,0,1,15,-285)" stroke="rgb(255,204,0)">
      <rect x="2600" width="100" height="30" y="405.8875" clip-path="url(#clipPath2)" stroke="none"/>
    </g>
    <g text-rendering="geometricPrecision" stroke-miterlimit="1.45" shape-rendering="geometricPrecision" transform="matrix(1,0,0,1,15,-285)" stroke-linecap="butt">
      <rect fill="none" x="2600" width="100" height="30" y="405.8875" clip-path="url(#clipPath2)"/>
      <text x="2627.0107" xml:space="preserve" y="425.0418" clip-path="url(#clipPath2)" font-family="sans-serif" stroke="none">setVote</text>
    </g>
    <g fill="rgb(255,204,0)" text-rendering="geometricPrecision" shape-rendering="geometricPrecision" transform="matrix(1,0,0,1,15,-285)" stroke="rgb(255,204,0)">
      <rect x="2800" width="100" height="30" y="405.8875" clip-path="url(#clipPath2)" stroke="none"/>
    </g>
    <g text-rendering="geometricPrecision" stroke-miterlimit="1.45" shape-rendering="geometricPrecision" transform="matrix(1,0,0,1,15,-285)" stroke-linecap="butt">
      <rect fill="none" x="2800" width="100" height="30" y="405.8875" clip-path="url(#clipPath2)"/>
      <text x="2821.7109" xml:space="preserve" y="425.0418" clip-path="url(#clipPath2)" font-family="sans-serif" stroke="none">setStatus</text>
    </g>
    <g fill="blue" text-rendering="geometricPrecision" shape-rendering="geometricPrecision" transform="matrix(1,0,0,1,15,-285)" stroke="blue">
      <rect x="3003.125" width="100" height="30" y="405.8875" clip-path="url(#clipPath2)" stroke="none"/>
    </g>
    <g text-rendering="geometricPrecision" stroke-miterlimit="1.45" shape-rendering="geometricPrecision" transform="matrix(1,0,0,1,15,-285)" stroke-linecap="butt">
      <rect fill="none" x="3003.125" width="100" height="30" y="405.8875" clip-path="url(#clipPath2)"/>
      <text x="3007.5127" y="425.0418" clip-path="url(#clipPath2)" fill="white" font-family="sans-serif" stroke="none" xml:space="preserve">gameEndEvent</text>
    </g>
    <g fill="rgb(255,204,0)" text-rendering="geometricPrecision" shape-rendering="geometricPrecision" transform="matrix(1,0,0,1,15,-285)" stroke="rgb(255,204,0)">
      <rect x="3206.25" width="100" height="30" y="405.8875" clip-path="url(#clipPath2)" stroke="none"/>
    </g>
    <g text-rendering="geometricPrecision" stroke-miterlimit="1.45" shape-rendering="geometricPrecision" transform="matrix(1,0,0,1,15,-285)" stroke-linecap="butt">
      <rect fill="none" x="3206.25" width="100" height="30" y="405.8875" clip-path="url(#clipPath2)"/>
      <text x="3214.4521" xml:space="preserve" y="425.0418" clip-path="url(#clipPath2)" font-family="sans-serif" stroke="none">getNextGame</text>
    </g>
    <g fill="blue" text-rendering="geometricPrecision" shape-rendering="geometricPrecision" transform="matrix(1,0,0,1,15,-285)" stroke="blue">
      <rect x="130" width="100" height="30" y="600" clip-path="url(#clipPath2)" stroke="none"/>
    </g>
    <g text-rendering="geometricPrecision" stroke-miterlimit="1.45" shape-rendering="geometricPrecision" transform="matrix(1,0,0,1,15,-285)" stroke-linecap="butt">
      <rect fill="none" x="130" width="100" height="30" y="600" clip-path="url(#clipPath2)"/>
      <text x="133.4795" y="619.1543" clip-path="url(#clipPath2)" fill="white" font-family="sans-serif" stroke="none" xml:space="preserve">Made by server</text>
    </g>
    <g fill="rgb(255,204,0)" text-rendering="geometricPrecision" shape-rendering="geometricPrecision" transform="matrix(1,0,0,1,15,-285)" stroke="rgb(255,204,0)">
      <rect x="0" width="100" height="30" y="600" clip-path="url(#clipPath2)" stroke="none"/>
    </g>
    <g text-rendering="geometricPrecision" stroke-miterlimit="1.45" shape-rendering="geometricPrecision" transform="matrix(1,0,0,1,15,-285)" stroke-linecap="butt">
      <rect fill="none" x="0" width="100" height="30" y="600" clip-path="url(#clipPath2)"/>
      <text x="9.3857" xml:space="preserve" y="619.1543" clip-path="url(#clipPath2)" font-family="sans-serif" stroke="none">Made by user</text>
      <path fill="none" d="M149 415 L250 415 L250 338" clip-path="url(#clipPath2)"/>
      <path d="M250 330 L245 342 L250 339 L255 342 Z" clip-path="url(#clipPath2)" stroke="none"/>
      <text x="210.7891" xml:space="preserve" y="383.6465" clip-path="url(#clipPath2)" font-family="sans-serif" stroke="none">NO</text>
      <path fill="none" d="M149 415 L250 415 L250 491.9585" clip-path="url(#clipPath2)"/>
      <path d="M250 499.9585 L255 487.9585 L250 490.9585 L245 487.9585 Z" clip-path="url(#clipPath2)" stroke="none"/>
      <text x="208.7354" xml:space="preserve" y="454.6621" clip-path="url(#clipPath2)" font-family="sans-serif" stroke="none">YES</text>
      <path fill="none" d="M300 515 L450 515 L450 438" clip-path="url(#clipPath2)"/>
      <path d="M450 430 L445 442 L450 439 L455 442 Z" clip-path="url(#clipPath2)" stroke="none"/>
      <path fill="none" d="M300 315 L450 315 L450 392" clip-path="url(#clipPath2)"/>
      <path d="M450 400 L455 388 L450 391 L445 388 Z" clip-path="url(#clipPath2)" stroke="none"/>
      <path fill="none" d="M500 415 L650 415 L650 338" clip-path="url(#clipPath2)"/>
      <path d="M650 330 L645 342 L650 339 L655 342 Z" clip-path="url(#clipPath2)" stroke="none"/>
      <path fill="none" d="M500 415 L650 415 L650 492" clip-path="url(#clipPath2)"/>
      <path d="M650 500 L655 488 L650 491 L645 488 Z" clip-path="url(#clipPath2)" stroke="none"/>
      <path fill="none" d="M700 315 L792 315" clip-path="url(#clipPath2)"/>
      <path d="M800 315 L788 310 L791 315 L788 320 Z" clip-path="url(#clipPath2)" stroke="none"/>
      <path fill="none" d="M900 315 L1050 315 L1050 397.8875" clip-path="url(#clipPath2)"/>
      <path d="M1050 405.8875 L1055 393.8875 L1050 396.8875 L1045 393.8875 Z" clip-path="url(#clipPath2)" stroke="none"/>
      <path fill="none" d="M700 515 L1050 515 L1050 443.8875" clip-path="url(#clipPath2)"/>
      <path d="M1050 435.8875 L1045 447.8875 L1050 444.8875 L1055 447.8875 Z" clip-path="url(#clipPath2)" stroke="none"/>
      <path fill="none" stroke-dasharray="6,2" d="M1100 420.8875 L1192 420.8875" clip-path="url(#clipPath2)"/>
      <path stroke-dasharray="6,2" d="M1200 420.8875 L1188 415.8875 L1191 420.8875 L1188 425.8875 Z" clip-path="url(#clipPath2)" stroke="none"/>
      <path fill="none" d="M1300 420.8875 L1350 420.8875 L1350 420.8875 L1392 420.8875" clip-path="url(#clipPath2)" stroke="blue"/>
      <path fill="blue" d="M1400 420.8875 L1388 415.8875 L1391 420.8875 L1388 425.8875 Z" clip-path="url(#clipPath2)" stroke="none"/>
      <path fill="none" d="M1500 420.8875 L1592 420.8875" clip-path="url(#clipPath2)"/>
      <path d="M1600 420.8875 L1588 415.8875 L1591 420.8875 L1588 425.8875 Z" clip-path="url(#clipPath2)" stroke="none"/>
      <path fill="none" d="M1700 420.8875 L1750 420.8875 L1750 420.8875 L1792 420.8875" clip-path="url(#clipPath2)"/>
      <path d="M1800 420.8875 L1788 415.8875 L1791 420.8875 L1788 425.8875 Z" clip-path="url(#clipPath2)" stroke="none"/>
      <path fill="none" d="M1900 420.8875 L1992 420.8875" clip-path="url(#clipPath2)"/>
      <path d="M2000 420.8875 L1988 415.8875 L1991 420.8875 L1988 425.8875 Z" clip-path="url(#clipPath2)" stroke="none"/>
      <path fill="none" stroke-dasharray="6,2" d="M2100 420.8875 L2150 420.8875 L2150 420.8875 L2192 420.8875" clip-path="url(#clipPath2)"/>
      <path stroke-dasharray="6,2" d="M2200 420.8875 L2188 415.8875 L2191 420.8875 L2188 425.8875 Z" clip-path="url(#clipPath2)" stroke="none"/>
      <path fill="none" d="M2300 420.8875 L2369.2781 420.8875 L2369.2781 420.8875 L2392 420.8875" clip-path="url(#clipPath2)"/>
      <path d="M2400 420.8875 L2388 415.8875 L2391 420.8875 L2388 425.8875 Z" clip-path="url(#clipPath2)" stroke="none"/>
      <path fill="none" d="M2500 420.8875 L2592 420.8875" clip-path="url(#clipPath2)"/>
      <path d="M2600 420.8875 L2588 415.8875 L2591 420.8875 L2588 425.8875 Z" clip-path="url(#clipPath2)" stroke="none"/>
      <path fill="none" d="M2700 420.8875 L2792 420.8875" clip-path="url(#clipPath2)"/>
      <path d="M2800 420.8875 L2788 415.8875 L2791 420.8875 L2788 425.8875 Z" clip-path="url(#clipPath2)" stroke="none"/>
      <path fill="none" stroke-dasharray="6,2" d="M2850 405.846 L2850 363.3875 L1450 363.3875 L1450 397.846" clip-path="url(#clipPath2)"/>
      <path stroke-dasharray="6,2" d="M1450 405.846 L1455 393.846 L1450 396.846 L1445 393.846 Z" clip-path="url(#clipPath2)" stroke="none"/>
      <path fill="none" stroke-dasharray="6,2" d="M2900 420.8875 L2995.125 420.8875" clip-path="url(#clipPath2)"/>
      <path stroke-dasharray="6,2" d="M3003.125 420.8875 L2991.125 415.8875 L2994.125 420.8875 L2991.125 425.8875 Z" clip-path="url(#clipPath2)" stroke="none"/>
      <path fill="none" d="M3103.125 420.8875 L3198.25 420.8875" clip-path="url(#clipPath2)"/>
      <path d="M3206.25 420.8875 L3194.25 415.8875 L3197.25 420.8875 L3194.25 425.8875 Z" clip-path="url(#clipPath2)" stroke="none"/>
    </g>
  </g>
</svg>
